<svg xmlns="http://www.w3.org/2000/svg" width="12.894" height="12.322" viewBox="0 0 12.894 12.322">
  <path id="cross-small_4_" data-name="cross-small (4)" d="M18.3,5.994h0a1.058,1.058,0,0,0-1.449,0l-4.7,4.49-4.7-4.49a1.058,1.058,0,0,0-1.449,0h0a.949.949,0,0,0,0,1.384l4.7,4.49-4.7,4.49a.949.949,0,0,0,0,1.384h0a1.058,1.058,0,0,0,1.449,0l4.7-4.49,4.7,4.49a1.058,1.058,0,0,0,1.449,0h0a.949.949,0,0,0,0-1.384l-4.7-4.49,4.7-4.49A.949.949,0,0,0,18.3,5.994Z" transform="translate(-5.707 -5.707)" fill="#091932"/>
</svg>
