<svg xmlns="http://www.w3.org/2000/svg" xmlns:xlink="http://www.w3.org/1999/xlink" width="40" height="29" viewBox="0 0 40 29">
  <defs>
    <clipPath id="clip-path">
      <path id="Path_803" data-name="Path 803" d="M4,0H36a4,4,0,0,1,4,4V25a4,4,0,0,1-4,4H4a4,4,0,0,1-4-4V4A4,4,0,0,1,4,0Z" fill="none"/>
    </clipPath>
  </defs>
  <g id="Mask_Group_5" data-name="Mask Group 5" clip-path="url(#clip-path)">
    <g id="_01_align_center" data-name="01 align center" transform="translate(3.16 2.504)">
      <path id="Path_801" data-name="Path 801" d="M33.713,18.075h0C32.47,15.515,27.6,7.167,16.983,7.167S1.5,15.515.253,18.075a2.488,2.488,0,0,0,0,2.187C1.5,22.819,6.369,31.168,16.983,31.168s15.487-8.348,16.73-10.908A2.487,2.487,0,0,0,33.713,18.075ZM16.983,28.5c-8.926,0-13.091-7.155-14.152-9.319,1.061-2.193,5.227-9.348,14.152-9.348,8.9,0,13.071,7.124,14.152,9.334C30.054,21.377,25.888,28.5,16.983,28.5Z" transform="translate(0 -7.167)" fill="#ebeef9"/>
      <path id="Path_802" data-name="Path 802" d="M23.8,16.722a6.881,6.881,0,0,0-7.076,6.667A6.881,6.881,0,0,0,23.8,30.056a6.881,6.881,0,0,0,7.076-6.667A6.889,6.889,0,0,0,23.8,16.722Zm0,10.667a4.128,4.128,0,0,1-4.246-4,4.128,4.128,0,0,1,4.246-4,4.128,4.128,0,0,1,4.246,4A4.128,4.128,0,0,1,23.8,27.389Z" transform="translate(-6.816 -11.389)" fill="#ebeef9"/>
    </g>
  </g>
</svg>
