<svg xmlns="http://www.w3.org/2000/svg" width="33" height="33" viewBox="0 0 33 33">
  <path id="globe" d="M16.5,0A16.5,16.5,0,1,0,33,16.5,16.5,16.5,0,0,0,16.5,0ZM28.39,9.625H23.961A27.055,27.055,0,0,0,20.082,3.24,13.793,13.793,0,0,1,28.39,9.625Zm-5.7,6.875a14.04,14.04,0,0,1-.654,4.125H10.967a14.04,14.04,0,0,1-.655-4.125,14.04,14.04,0,0,1,.655-4.125H22.033a14.04,14.04,0,0,1,.654,4.125ZM12.07,23.375H20.93a26.969,26.969,0,0,1-4.43,6.308,26.909,26.909,0,0,1-4.43-6.308Zm0-13.75A26.969,26.969,0,0,1,16.5,3.316a26.909,26.909,0,0,1,4.43,6.309Zm.855-6.385A27.055,27.055,0,0,0,9.039,9.625H4.61a13.793,13.793,0,0,1,8.315-6.386ZM3.384,12.375H8.113a16.522,16.522,0,0,0-.55,4.125,16.522,16.522,0,0,0,.55,4.125H3.384a13.739,13.739,0,0,1,0-8.25Zm1.227,11H9.039a27.055,27.055,0,0,0,3.886,6.386A13.793,13.793,0,0,1,4.61,23.375Zm15.471,6.386a27.055,27.055,0,0,0,3.879-6.386H28.39A13.793,13.793,0,0,1,20.082,29.761Zm9.534-9.136H24.888a16.522,16.522,0,0,0,.55-4.125,16.522,16.522,0,0,0-.55-4.125h4.726a13.739,13.739,0,0,1,0,8.25Z" fill="#ebeef9"/>
</svg>
