<svg xmlns="http://www.w3.org/2000/svg" width="16.832" height="16.832" viewBox="0 0 16.832 16.832">
  <path id="globe" d="M8.416,0a8.416,8.416,0,1,0,8.416,8.416A8.416,8.416,0,0,0,8.416,0ZM14.48,4.909H12.221a13.8,13.8,0,0,0-1.978-3.257A7.035,7.035,0,0,1,14.48,4.909ZM11.572,8.416a7.161,7.161,0,0,1-.334,2.1H5.594a7.161,7.161,0,0,1-.334-2.1,7.161,7.161,0,0,1,.334-2.1h5.644a7.161,7.161,0,0,1,.334,2.1ZM6.156,11.923h4.519a13.756,13.756,0,0,1-2.26,3.218,13.725,13.725,0,0,1-2.26-3.218Zm0-7.013a13.756,13.756,0,0,1,2.26-3.218,13.725,13.725,0,0,1,2.26,3.218Zm.436-3.257A13.8,13.8,0,0,0,4.611,4.909H2.352A7.035,7.035,0,0,1,6.593,1.652ZM1.726,6.312H4.138a8.427,8.427,0,0,0-.281,2.1,8.427,8.427,0,0,0,.281,2.1H1.726a7.008,7.008,0,0,1,0-4.208Zm.626,5.611H4.611A13.8,13.8,0,0,0,6.593,15.18,7.035,7.035,0,0,1,2.352,11.923Zm7.891,3.257a13.8,13.8,0,0,0,1.978-3.257H14.48A7.035,7.035,0,0,1,10.243,15.18Zm4.863-4.66H12.694a8.427,8.427,0,0,0,.281-2.1,8.427,8.427,0,0,0-.281-2.1H15.1a7.008,7.008,0,0,1,0,4.208Z" fill="#ebeef9"/>
</svg>
