<svg xmlns="http://www.w3.org/2000/svg" width="14.094" height="16.832" viewBox="0 0 14.094 16.832">
  <g id="_01_align_center" transform="translate(-35.955 -0.174)">
    <path id="Path_824" data-name="Path 824" d="M43,17.006l-.489-.419c-.674-.564-6.559-5.647-6.559-9.364a7.048,7.048,0,0,1,14.1,0c0,3.718-5.885,8.8-6.556,9.367ZM43,1.7a5.53,5.53,0,0,0-5.524,5.524C37.478,9.558,41.1,13.289,43,15c1.9-1.708,5.524-5.441,5.524-7.774A5.53,5.53,0,0,0,43,1.7Z" transform="translate(0 0)" fill="#ebeef9"/>
    <path id="Path_825" data-name="Path 825" d="M152.991,120a2.794,2.794,0,1,1,2.794-2.794A2.794,2.794,0,0,1,152.991,120Zm0-4.191a1.4,1.4,0,1,0,1.4,1.4A1.4,1.4,0,0,0,152.991,115.814Z" transform="translate(-109.989 -109.989)" fill="#ebeef9"/>
  </g>
</svg>
