<svg id="link" xmlns="http://www.w3.org/2000/svg" width="21.715" height="21.72" viewBox="0 0 21.715 21.72">
  <path id="Path_1839" data-name="Path 1839" d="M12.528,16.428,9.577,19.38a4.55,4.55,0,1,1-6.435-6.433L6.094,9.993a.905.905,0,1,0-1.28-1.28L1.862,11.668a6.36,6.36,0,1,0,9,8.992l2.952-2.952a.9.9,0,1,0-1.28-1.28Z" transform="translate(-0.001 -0.803)" fill="#b0b0b0"/>
  <path id="Path_1840" data-name="Path 1840" d="M20.66,1.865A6.315,6.315,0,0,0,16.164,0h0a6.319,6.319,0,0,0-4.5,1.861L8.712,4.814a.905.905,0,0,0,1.28,1.28l2.954-2.952A4.518,4.518,0,0,1,16.162,1.81h0a4.55,4.55,0,0,1,3.216,7.767l-2.952,2.952a.905.905,0,0,0,1.28,1.28l2.952-2.95a6.368,6.368,0,0,0,0-8.994Z" transform="translate(-0.804 0)" fill="#b0b0b0"/>
  <path id="Path_1841" data-name="Path 1841" d="M13.694,8.265,8.265,13.694a.9.9,0,1,0,1.28,1.28l5.429-5.429a.9.9,0,1,0-1.28-1.28Z" transform="translate(-0.761 -0.761)" fill="#b0b0b0"/>
</svg>
