<svg xmlns="http://www.w3.org/2000/svg" width="190.886" height="52.796" viewBox="0 0 190.886 52.796">
  <g id="Group_16349" data-name="Group 16349" transform="translate(-1296.364 -210.513)">
    <g id="Group_16348" data-name="Group 16348" transform="translate(1296.364 210.513)">
      <g id="Group_164" data-name="Group 164" transform="translate(26.182 0) rotate(45)">
        <path id="Union_6" data-name="Union 6" d="M0,22.507V13.715H8.792v8.792ZM0,4.4a4.4,4.4,0,1,1,4.4,4.4A4.4,4.4,0,0,1,0,4.4Z" transform="translate(14.426 0.528)" fill="#ffd500"/>
        <path id="Path_422" data-name="Path 422" d="M18.822,37.026A18.818,18.818,0,0,1,14.074,0V9.991a9.5,9.5,0,1,0,9.5,0V0a18.818,18.818,0,0,1-4.747,37.026Z" transform="translate(0 0)" fill="#fff"/>
      </g>
      <g id="Cynnent_Text_Logo" data-name="Cynnent Text Logo" transform="translate(52.794 15.45)">
        <path id="Cynnent_Text_Logo-2" data-name="Cynnent Text Logo" d="M19.73-70.41c6.715,0,9.777-4.106,11.829-8.7l-5.22-1.531c-2.053,3.792-3.166,6.054-6.541,6.054-4.036,0-6.68-3.2-6.68-7.55,0-4.314,2.575-7.341,6.471-7.341,3.2,0,4.732,1.983,6.541,5.741l5.22-1.775c-1.983-4.314-5.22-8.211-11.725-8.211-7.48,0-12.525,5.148-12.525,11.656C7.1-75.594,12.075-70.41,19.73-70.41Zm18.649,6.576a6.184,6.184,0,0,0,6.054-4.245l6.993-20.076H45.894l-4.245,12.7-4.036-12.7h-5.5l5.81,16.213h2.435l-.348,1.427c-.486,2.053-1.113,2.957-1.635,2.957-.626,0-.87-.418-.9-1.427a.343.343,0,0,0-.313-.348l-4.314-.417a.394.394,0,0,0-.29.1.394.394,0,0,0-.128.28v.662C32.429-66.13,34.9-63.834,38.378-63.834Zm14.3-23.728v16.8h5.08c0-9.359,1.7-14.021,4.94-14.021,2.853,0,2.853,2.923,2.853,4.106v9.915h5.08V-81.439c0-3.9-2.122-7.063-7.1-7.063-4.245,0-5.776,4.975-5.776,9.011v-5.532l-.383-2.818q-.052-.313-.313-.313l-4,.209a.386.386,0,0,0-.382.384Zm19.867,0v16.8h5.08c0-9.359,1.7-14.021,4.94-14.021,2.853,0,2.853,2.923,2.853,4.106v9.915H90.5V-81.439c0-3.9-2.122-7.063-7.1-7.063-4.245,0-5.776,4.975-5.776,9.011v-5.532l-.383-2.818q-.052-.313-.313-.313l-4,.209A.386.386,0,0,0,72.545-87.561Zm28.32,17.152a8.956,8.956,0,0,0,8.35-5.915c.07-.174-.174-.313-.452-.313h-4.036a.31.31,0,0,0-.278.174,3.735,3.735,0,0,1-3.583,2.4c-2.053,0-3.723-1.113-3.931-3.966h12.422c.626-6.158-3.027-10.473-8.489-10.473-5.532,0-8.8,3.862-8.8,8.872C92.064-74.515,95.438-70.41,100.865-70.41ZM97-80.708a3.553,3.553,0,0,1,3.862-4.106c2.157,0,3.653,1.392,3.688,4.106Zm13.987-6.853v16.8h5.08c0-9.359,1.7-14.021,4.94-14.021,2.853,0,2.853,2.923,2.853,4.106v9.915h5.08V-81.439c0-3.9-2.122-7.063-7.1-7.063-4.245,0-5.776,4.975-5.776,9.011v-5.532l-.383-2.818q-.052-.313-.313-.313l-4,.209a.386.386,0,0,0-.382.384Zm27.765,17.118c3.271,0,6.436-1.809,6.436-5.358v-2.018a.386.386,0,0,0-.383-.383l-4.314.209a.374.374,0,0,0-.348.348V-76.6c0,1.113-.174,2.469-1.392,2.469s-1.392-1.427-1.392-2.469v-8.073h5.08a.329.329,0,0,0,.252-.1.329.329,0,0,0,.1-.252V-87.8a.329.329,0,0,0-.1-.252.329.329,0,0,0-.252-.1h-5.079v-4.942a.411.411,0,0,0-.188-.359.411.411,0,0,0-.4-.024L132.563-91.6a.286.286,0,0,0-.174.278v1.009c0,1.7-.522,2.157-1.74,2.157h-1.183a.329.329,0,0,0-.252.1.329.329,0,0,0-.1.252v2.783a.329.329,0,0,0,.1.252.329.329,0,0,0,.252.1h2.818V-75.8C132.284-72.253,135.485-70.443,138.755-70.443Z" transform="translate(-7.1 93.721)" fill="#fff"/>
      </g>
    </g>
  </g>
</svg>
