<svg id="Group_168" data-name="Group 168" xmlns="http://www.w3.org/2000/svg" width="108.029" height="108.029" viewBox="0 0 108.029 108.029">
  <path id="registered-light" d="M2.487,0A2.487,2.487,0,1,0,4.975,2.487,2.487,2.487,0,0,0,2.487,0Zm0,4.664A2.177,2.177,0,1,1,4.664,2.487,2.177,2.177,0,0,1,2.487,4.664ZM3.575,2.1a.856.856,0,0,0-.854-.855h-.7a.466.466,0,0,0-.466.466V3.575a.156.156,0,1,0,.311,0V2.954h.845l.421.7a.156.156,0,0,0,.133.074.153.153,0,0,0,.08-.022A.155.155,0,0,0,3.4,3.494l-.363-.6A.854.854,0,0,0,3.575,2.1Zm-.855.544H1.866v-.93a.156.156,0,0,1,.156-.156h.7a.544.544,0,1,1,0,1.088Z" transform="translate(91.65 32.722)" fill="#fcfdff"/>
  <g id="Group_164" data-name="Group 164" transform="translate(53.57 0) rotate(45)">
    <path id="Union_6" data-name="Union 6" d="M0,46.051V28.062H17.989V46.051ZM0,8.993a8.994,8.994,0,1,1,8.994,8.995A8.994,8.994,0,0,1,0,8.993Z" transform="translate(29.518 1.08)" fill="#ffd500"/>
    <path id="Path_422" data-name="Path 422" d="M38.512,75.76A38.5,38.5,0,0,1,28.8,0V20.442a19.429,19.429,0,1,0,19.428,0V0a38.5,38.5,0,0,1-9.714,75.76Z" transform="translate(0 0)" fill="#fcfdff"/>
  </g>
</svg>
