<svg xmlns="http://www.w3.org/2000/svg" width="27.636" height="33" viewBox="0 0 27.636 33">
  <g id="_01_align_center" transform="translate(-35.954 -0.175)">
    <path id="Path_824" data-name="Path 824" d="M49.773,33.175l-.959-.822c-1.321-1.106-12.86-11.071-12.86-18.36a13.818,13.818,0,1,1,27.636,0c0,7.289-11.538,17.254-12.854,18.366Zm0-30.012a10.842,10.842,0,0,0-10.83,10.83c0,4.579,7.1,11.894,10.83,15.242C53.5,25.886,60.6,18.566,60.6,13.993A10.842,10.842,0,0,0,49.773,3.163Z" transform="translate(0 0)" fill="#ebeef9"/>
    <path id="Path_825" data-name="Path 825" d="M155.675,125.372a5.477,5.477,0,1,1,5.477-5.477A5.477,5.477,0,0,1,155.675,125.372Zm0-8.216a2.739,2.739,0,1,0,2.739,2.739A2.739,2.739,0,0,0,155.675,117.156Z" transform="translate(-105.902 -105.902)" fill="#ebeef9"/>
  </g>
</svg>
