<svg xmlns="http://www.w3.org/2000/svg" width="14.226" height="14.226" viewBox="0 0 14.226 14.226">
  <path id="plus-small_2_" data-name="plus-small (2)" d="M19.041,11.928H14.3V7.186A1.186,1.186,0,0,0,13.113,6h0a1.186,1.186,0,0,0-1.186,1.186v4.742H7.186A1.186,1.186,0,0,0,6,13.113H6A1.186,1.186,0,0,0,7.186,14.3h4.742v4.742a1.186,1.186,0,0,0,1.186,1.186h0A1.186,1.186,0,0,0,14.3,19.041V14.3h4.742a1.186,1.186,0,0,0,1.186-1.186h0A1.186,1.186,0,0,0,19.041,11.928Z" transform="translate(-6 -6)" fill="#fff"/>
</svg>
