<svg id="Group_16339" data-name="Group 16339" xmlns="http://www.w3.org/2000/svg" width="29.609" height="29.609" viewBox="0 0 29.609 29.609">
  <path id="user-check" d="M9.87,14.8a7.4,7.4,0,1,0-7.4-7.4A7.41,7.41,0,0,0,9.87,14.8Zm0-12.337A4.935,4.935,0,1,1,4.935,7.4,4.94,4.94,0,0,1,9.87,2.467Zm9.87,24.674v1.234a1.234,1.234,0,0,1-2.467,0V27.142a7.4,7.4,0,0,0-14.8,0v1.234a1.234,1.234,0,0,1-2.467,0V27.142a9.87,9.87,0,0,1,19.74,0Zm9.5-14.537-4.925,4.781a3.866,3.866,0,0,1-5.453-.012l-2.432-2.287a1.234,1.234,0,1,1,1.693-1.8L20.576,15.6a1.414,1.414,0,0,0,2,.026l4.937-4.794a1.234,1.234,0,0,1,1.719,1.77Z" fill="#ebeef9"/>
</svg>
